<?xml version="1.0" encoding="UTF-8"?>
<svg version="1.1" xmlns="http://www.w3.org/2000/svg" width="468" height="533">
<path d="M0 0 C3.35519651 0.54993247 6.46790551 0.65335162 9.86618137 0.64672852 C11.18302418 0.64665802 12.49986698 0.64658752 13.85661411 0.64651489 C15.30592471 0.64138009 16.75523501 0.63615865 18.20454502 0.63085938 C19.74190313 0.62893803 21.27926187 0.62747525 22.81662083 0.62643433 C26.13294282 0.62327261 29.44923934 0.61699957 32.76555157 0.60836792 C38.07976293 0.59470724 43.39396607 0.58891728 48.70819187 0.58422852 C61.95981729 0.57128596 75.21142037 0.5471889 88.46302891 0.52282715 C101.37352614 0.49928576 114.28401906 0.47989682 127.19453526 0.47070312 C128.09577893 0.47006111 128.9970226 0.4694191 129.92557669 0.46875763 C154.29706197 0.45395236 178.66346884 0.54829877 203.03211188 0.93892288 C205.0158628 0.97047078 206.99963982 1.000363 208.98341656 1.03024292 C212.57338152 1.08625583 216.16311221 1.14968236 219.75288486 1.21679688 C220.80212824 1.2335144 221.85137161 1.25023193 222.93241024 1.26745605 C223.8781069 1.28739624 224.82380356 1.30733643 225.79815769 1.32788086 C227.02591372 1.35119728 227.02591372 1.35119728 228.2784729 1.37498474 C230.25312901 1.53320312 230.25312901 1.53320312 232.25312901 2.53320312 C232.34173552 6.76223303 232.39405146 10.99101805 232.44062901 15.22070312 C232.47833408 16.98897461 232.47833408 16.98897461 232.51680088 18.79296875 C232.59079677 27.79580191 232.39322853 37.82305384 227.25312901 45.53320312 C226.59312901 45.53320312 225.93312901 45.53320312 225.25312901 45.53320312 C225.02625401 46.25507812 224.79937901 46.97695312 224.56562901 47.72070312 C222.18959624 52.8122019 218.21372133 56.05290696 213.25312901 58.53320312 C210.89755903 59.37217325 208.53349754 60.14885123 206.14375401 60.88476562 C204.26572844 61.3741177 204.26572844 61.3741177 203.25312901 62.53320312 C203.06076252 64.24323202 202.92918617 65.96017164 202.82344151 67.67773438 C202.74996494 68.74830078 202.67648838 69.81886719 202.60078526 70.921875 C202.45516284 73.16113894 202.3143401 75.40072151 202.17891026 77.640625 C201.49180807 87.44056547 200.11297178 96.97629651 195.25312901 105.65820312 C193.30447908 109.31728172 191.82648634 112.63988824 190.81562901 116.65820312 C188.17534527 126.10921876 180.90960784 133.23301222 174.60493565 140.48120117 C170.94293914 144.69241026 167.5344192 149.01867635 164.25312901 153.53320312 C162.92931384 155.20743995 161.5973624 156.87531527 160.25312901 158.53320312 C159.67562901 159.31695312 159.09812901 160.10070312 158.50312901 160.90820312 C155.99978644 163.82876945 153.2641836 166.20580461 150.34297276 168.69726562 C147.69267569 171.02556398 145.24666462 173.52107912 142.78437901 176.04492188 C141.25312901 177.53320313 141.25312901 177.53320313 139.00312901 179.09570312 C137.02851814 180.50813655 137.02851814 180.50813655 135.97969151 183.24023438 C134.06606488 186.88997927 131.68502867 189.69199294 128.87812901 192.65820312 C128.40891026 193.16996094 127.93969151 193.68171875 127.45625401 194.20898438 C124.58527127 197.29410118 121.5596747 199.93285676 118.25312901 202.53320312 C109.81019017 210.88315806 104.02206836 219.76591089 102.25312901 231.53320312 C100.44520944 240.97456086 93.96906968 249.25461465 86.15156651 254.68945312 C85.19508213 255.29789063 84.23859776 255.90632813 83.25312901 256.53320312 C75.67776603 262.7977387 71.61288955 270.46795852 68.83125401 279.78320312 C68.25312901 281.53320312 68.25312901 281.53320312 67.25312901 282.53320312 C66.88552169 284.86138276 66.5507132 287.19504162 66.25312901 289.53320312 C69.22312901 290.19320313 72.19312901 290.85320312 75.25312901 291.53320312 C75.50062901 290.06882812 75.74812901 288.60445313 76.00312901 287.09570312 C78.96792594 273.05709513 87.8666154 263.05291576 99.19062901 254.47070312 C115.47341197 244.07073207 133.98983368 244.29327476 152.55586338 244.51831055 C159.22746904 244.5927935 165.64275828 244.46211143 172.25312901 243.53320312 C172.25312901 242.87320313 172.25312901 242.21320313 172.25312901 241.53320312 C172.91312901 241.53320312 173.57312901 241.53320312 174.25312901 241.53320312 C174.31500401 240.70820313 174.37687901 239.88320313 174.44062901 239.03320312 C176.68576073 229.36186648 184.61416466 222.49695134 191.25312901 215.53320312 C191.93246494 214.78941406 192.61180088 214.045625 193.31172276 213.27929688 C193.89051182 212.66183594 194.46930088 212.044375 195.06562901 211.40820312 C195.54644932 210.89 196.02726963 210.37179687 196.52266026 209.83789062 C202.94156767 204.99835321 211.6826148 206.03009933 219.25312901 206.53320312 C224.22249754 207.3684501 227.68400165 208.62596616 231.00312901 212.47070312 C233.80770477 215.6591454 236.5708799 216.4186255 240.62812901 217.53320312 C248.69189248 219.75578941 255.96267858 224.04413733 260.25312901 231.53320312 C261.425321 234.53515823 262.42573476 237.54645706 263.35859776 240.63085938 C264.18554916 243.50015347 264.18554916 243.50015347 265.32734776 246.02148438 C267.15157894 250.97076984 266.98324605 256.30946865 267.25312901 261.53320312 C267.34207432 262.48066406 267.43101963 263.428125 267.52266026 264.40429688 C268.05451037 272.92626724 265.03247432 280.04630914 259.54219151 286.56445312 C258.39403985 287.70740953 257.21903666 288.82402706 256.01875401 289.91210938 C254.20285042 291.57936598 252.6533333 293.33626769 251.06562901 295.22070312 C244.94174931 302.31005935 238.26955861 309.10203369 231.06562901 315.09570312 C226.91759076 318.58833408 223.7741284 322.75804408 220.52656651 327.08007812 C217.01375883 330.87053039 213.75048933 332.40412034 208.62812901 332.84570312 C205.10224881 333.2080764 205.10224881 333.2080764 203.12812901 335.97070312 C202.4797256 337.14558792 201.8571848 338.33491358 201.25312901 339.53320312 C200.65371494 340.56960938 200.65371494 340.56960938 200.04219151 341.62695312 C197.28313032 346.64342801 195.60534637 351.61287767 194.25312901 357.15820312 C191.9699686 366.34439192 188.66103991 371.74676404 181.36641026 377.73632812 C179.13555488 379.63317373 177.14912448 381.66560175 175.12812901 383.78320312 C171.30330748 387.65284677 167.74701727 389.7963725 162.50312901 391.34570312 C158.51550166 392.80272081 155.19165733 394.91815938 151.62031651 397.19335938 C149.44514488 398.42452088 147.69276921 399.07787857 145.25312901 399.53320312 C145.32531651 400.4071875 145.39750401 401.28117187 145.47187901 402.18164062 C146.02292735 409.48303115 146.40023327 416.77346086 146.50312901 424.09570312 C146.5350333 425.21887939 146.5350333 425.21887939 146.56758213 426.36474609 C146.59815322 431.22227361 145.69077454 434.22379406 143.25312901 438.53320312 C142.143273 444.08248318 142.34438847 448.75106167 143.19453526 454.33398438 C143.25312901 456.53320312 143.25312901 456.53320312 141.25312901 459.53320312 C129.44514612 460.73401494 121.82414055 453.71964919 112.99141026 446.74804688 C111.36126983 445.40227172 109.79848864 443.97553879 108.25312901 442.53320312 C108.25312901 441.87320312 108.25312901 441.21320313 108.25312901 440.53320312 C107.69625401 440.32695312 107.13937901 440.12070312 106.56562901 439.90820312 C103.9592157 438.35844386 102.39639704 436.46131557 100.53828526 434.09179688 C99.14676207 432.3259334 99.14676207 432.3259334 96.75312901 430.28320312 C93.8882588 427.1318459 92.36826716 424.02570724 90.57344151 420.19335938 C89.27466465 417.57659298 87.7911093 415.22413665 86.19062901 412.78320312 C81.66852611 405.42895847 79.84675471 396.94312886 78.25312901 388.53320312 C77.18062901 388.47132813 76.10812901 388.40945313 75.00312901 388.34570312 C68.97645628 387.57656482 63.76028819 384.98013408 58.25312901 382.53320312 C56.85844932 381.94841286 55.46255396 381.36651575 54.06562901 380.78710938 C52.62796397 380.18203259 51.1904624 379.57656727 49.75312901 378.97070312 C48.72929111 378.54990479 48.72929111 378.54990479 47.68476963 378.12060547 C43.74162402 376.4305458 41.16842366 374.63821326 38.25312901 371.53320312 C36.16618993 370.29953515 36.16618993 370.29953515 33.94062901 369.40820312 C33.15172276 369.07175781 32.36281651 368.7353125 31.55000401 368.38867188 C29.08070563 367.41148174 29.08070563 367.41148174 25.69062901 366.72070312 C18.12637985 364.10759887 13.67534035 358.17084588 9.54609776 351.58398438 C7.962984 349.07300335 6.11381083 346.84495934 4.25312901 344.53320312 C2.49648783 342.01190638 0.75876311 339.47901343 -0.96562099 336.93554688 C-2.70063481 334.4660595 -2.70063481 334.4660595 -4.96562099 332.34960938 C-6.74687099 330.53320312 -6.74687099 330.53320312 -6.74687099 328.53320312 C-7.73687099 328.20320313 -8.72687099 327.87320312 -9.74687099 327.53320312 C-17.15061484 316.35593822 -20.69435317 301.91920653 -24.80473232 289.28662109 C-26.64150191 283.67857764 -28.62297594 278.22266281 -30.9980917 272.81811523 C-32.08989238 269.48646782 -31.9594078 266.41737564 -31.69218349 262.95507812 C-31.76208574 259.85940742 -32.72348782 257.45200724 -33.74687099 254.53320312 C-37.84509806 237.27553134 -37.84509806 237.27553134 -36.20463467 228.69799805 C-35.73413273 225.44513587 -35.84443726 222.72234234 -36.17265224 219.45898438 C-36.7514837 212.86440705 -36.93914046 206.3388135 -36.93437099 199.72070312 C-36.9331625 197.91037598 -36.9331625 197.91037598 -36.93192959 196.06347656 C-36.86012426 184.79144771 -36.40820983 173.54169175 -35.87187099 162.28320312 C-35.81306255 160.9810939 -35.81306255 160.9810939 -35.75306606 159.65267944 C-35.6376351 157.14876804 -35.51063881 154.64572076 -35.37968349 152.14257812 C-35.3462434 151.40608536 -35.31280331 150.66959259 -35.27834988 149.91078186 C-34.98065243 144.62820285 -34.00777074 139.66544166 -32.74687099 134.53320312 C-31.42237422 128.59460973 -30.52381688 122.77997177 -30.01640224 116.71679688 C-28.35902329 97.14050923 -28.35902329 97.14050923 -24.89140224 88.76367188 C-22.93436953 83.23989695 -21.76996591 77.50642743 -20.49760342 71.79199219 C-20.29884609 70.91381836 -20.10008877 70.03564453 -19.89530849 69.13085938 C-19.72176846 68.34203369 -19.54822842 67.55320801 -19.36942959 66.74047852 C-18.73468267 64.48998953 -17.8588046 62.58481129 -16.74687099 60.53320312 C-17.69562099 60.43007812 -18.64437099 60.32695313 -19.62187099 60.22070312 C-32.73584158 58.22567717 -32.73584158 58.22567717 -36.93437099 53.53320312 C-37.89256488 52.21466283 -38.82843761 50.87974096 -39.74687099 49.53320312 C-40.35659756 48.78425781 -40.96632412 48.0353125 -41.59452724 47.26367188 C-47.81269375 38.95150269 -48.33131194 30.5653863 -48.74687099 20.53320312 C-48.78393154 19.76556641 -48.82099209 18.99792969 -48.85917568 18.20703125 C-49.40144269 5.65435534 -49.40144269 5.65435534 -47.61796474 2.59960938 C-44.8414783 1.01718599 -42.67939886 1.28689601 -39.49687099 1.40820312 C-32.52154541 1.57714647 -25.5923142 1.40034383 -18.62187099 1.09570312 C-17.62639248 1.05622559 -16.63091396 1.01674805 -15.60526943 0.97607422 C-14.18649502 0.91347412 -14.18649502 0.91347412 -12.73905849 0.84960938 C-11.89713955 0.81295166 -11.0552206 0.77629395 -10.18778896 0.73852539 C-7.72781881 0.59307369 -7.72781881 0.59307369 -5.30985928 -0.04907227 C-2.74687099 -0.46679688 -2.74687099 -0.46679688 0 0 Z " fill="#705543" transform="translate(139.74687099456787,51.466796875)"/>
<path d="M0 0 C0.6199585 0.18989502 1.23991699 0.37979004 1.87866211 0.57543945 C2.0567429 6.3333851 1.62012183 11.41990071 0.37866211 17.07543945 C-1.65565876 27.53865292 -1.34442994 38.09181387 -1.18579102 48.69848633 C-1.08509951 55.78871203 -1.20931409 62.74308854 -1.89868164 69.81030273 C-2.32475312 75.10162467 -2.12456245 80.39865732 -1.99438477 85.70043945 C-1.98342773 86.53575195 -1.9724707 87.37106445 -1.96118164 88.23168945 C-1.94434326 88.97225586 -1.92750488 89.71282227 -1.91015625 90.47583008 C-2.12133789 92.57543945 -2.12133789 92.57543945 -3.13061523 94.54199219 C-4.35175383 97.04836562 -4.28485488 98.68342974 -4.13305664 101.4543457 C-4.08600586 102.37538086 -4.03895508 103.29641602 -3.99047852 104.24536133 C-3.93053711 105.19991211 -3.8705957 106.15446289 -3.80883789 107.13793945 C-3.76049805 108.09635742 -3.7121582 109.05477539 -3.66235352 110.04223633 C-3.38359386 115.39398457 -3.38359386 115.39398457 -2.12133789 120.57543945 C-2.02438479 122.92797785 -1.99154739 125.28340896 -1.99633789 127.63793945 C-1.99682129 128.31042725 -1.99730469 128.98291504 -1.99780273 129.67578125 C-2.02407522 133.46128467 -2.24476365 137.13807492 -2.74633789 140.88793945 C-3.47964637 147.59716475 -1.9449179 153.3499131 0.31616211 159.64575195 C3.56220366 168.7154867 5.55726194 176.55097541 5.67553711 186.2199707 C5.92668041 190.36866487 6.76467916 193.15682846 9.33569336 196.4309082 C11.03433396 198.79180362 11.91301784 201.17334391 12.86962891 203.90551758 C15.21179271 210.57161296 17.3391766 214.77842557 23.11694336 219.11450195 C27.09656925 222.41467952 27.82043257 227.17831732 28.69116211 232.01293945 C29.91719963 237.98100638 33.44062489 241.90320654 37.46459961 246.3137207 C40.31983101 249.46607009 42.19283695 252.06860611 43.69116211 256.07543945 C45.95813683 261.65276639 50.0579665 264.23675389 54.87866211 267.57543945 C56.96540118 269.17768106 58.91796722 270.81584148 60.87866211 272.57543945 C60.87866211 273.23543945 60.87866211 273.89543945 60.87866211 274.57543945 C61.54639648 274.8177832 62.21413086 275.06012695 62.90209961 275.30981445 C66.60537341 276.88443481 70.01626374 278.82595353 73.50366211 280.82543945 C74.93709125 281.63692822 76.3706855 282.44812538 77.80444336 283.2590332 C80.20155996 284.61970864 82.59442554 285.98689089 84.98413086 287.3605957 C89.44770894 289.879007 93.78801007 291.99931479 98.62866211 293.70043945 C99.98604492 294.18577148 99.98604492 294.18577148 101.37084961 294.6809082 C102.89039141 295.22292545 104.41529492 295.7506045 105.94897461 296.2512207 C109.47850644 297.74095816 110.65565882 299.13397239 112.41381836 302.61450195 C115.87866211 311.32004252 115.87866211 311.32004252 115.87866211 315.57543945 C116.53866211 315.57543945 117.19866211 315.57543945 117.87866211 315.57543945 C118.19319336 316.23930664 118.50772461 316.90317383 118.83178711 317.5871582 C121.56123766 323.26005757 121.56123766 323.26005757 125.25366211 328.32543945 C126.87866211 330.57543945 126.87866211 330.57543945 126.69116211 333.82543945 C125.87866211 336.57543945 125.87866211 336.57543945 124.87866211 337.57543945 C113.53594447 338.44329863 101.1690378 337.61562347 90.87866211 332.57543945 C87.17098182 331.48870558 83.7031241 330.67274949 79.86694336 330.2199707 C71.72107402 329.24632242 65.79593993 326.98364456 58.87866211 322.57543945 C58.87866211 321.91543945 58.87866211 321.25543945 58.87866211 320.57543945 C57.97116211 320.55481445 57.06366211 320.53418945 56.12866211 320.51293945 C50.13571221 319.697404 44.7246372 316.0209357 39.87866211 312.57543945 C39.87866211 311.91543945 39.87866211 311.25543945 39.87866211 310.57543945 C39.16323242 310.31762695 38.44780273 310.05981445 37.71069336 309.79418945 C34.707061 308.5015918 32.24360839 306.94766856 29.56616211 305.07543945 C28.6831543 304.46700195 27.80014648 303.85856445 26.89038086 303.23168945 C26.22651367 302.68512695 25.56264648 302.13856445 24.87866211 301.57543945 C24.87866211 300.91543945 24.87866211 300.25543945 24.87866211 299.57543945 C24.11553711 299.28668945 23.35241211 298.99793945 22.56616211 298.70043945 C19.87866211 297.57543945 19.87866211 297.57543945 16.87866211 295.57543945 C16.87866211 294.91543945 16.87866211 294.25543945 16.87866211 293.57543945 C16.33081055 293.37563477 15.78295898 293.17583008 15.21850586 292.9699707 C11.92942374 291.00969972 9.81418483 288.20392084 7.44116211 285.26293945 C4.79885792 282.0269414 2.19262733 278.8875551 -0.77368164 275.9387207 C-2.94593042 273.75201437 -4.58245067 271.65764694 -6.24633789 269.07543945 C-6.99657227 267.91141602 -6.99657227 267.91141602 -7.76196289 266.72387695 C-8.21055664 266.01489258 -8.65915039 265.3059082 -9.12133789 264.57543945 C-9.74008789 263.62668945 -10.35883789 262.67793945 -10.99633789 261.70043945 C-12.12133789 259.57543945 -12.12133789 259.57543945 -12.12133789 256.57543945 C-12.78133789 256.57543945 -13.44133789 256.57543945 -14.12133789 256.57543945 C-16.36339258 253.23053625 -18.14125019 249.64522984 -19.99633789 246.07543945 C-22.27128053 241.86904798 -24.58610363 238.83157627 -28.12133789 235.57543945 C-33.6077204 228.31405084 -35.38884297 220.65815316 -37.30102539 211.94262695 C-38.09269675 208.69300453 -39.0776506 205.60512173 -40.18383789 202.45043945 C-42.73173081 195.02152563 -44.27107882 187.95069489 -44.05883789 180.07543945 C-43.91593128 173.42551854 -45.49754921 167.23937289 -48.18774414 161.16918945 C-49.31298457 158.04299847 -49.50486092 155.26341744 -49.68383789 151.95043945 C-49.87519077 148.53732891 -50.0387959 145.82306542 -51.12133789 142.57543945 C-51.27624027 139.63468876 -51.37923255 136.71360834 -51.43774414 133.77075195 C-51.46891579 132.45831009 -51.46891579 132.45831009 -51.50071716 131.11935425 C-51.54398376 129.26166618 -51.58502541 127.40392516 -51.62402344 125.54614258 C-51.68288268 122.74588418 -51.74813463 119.94583672 -51.81469727 117.14575195 C-52.01357111 108.48759229 -52.17995934 99.84351582 -52.0390625 91.18310547 C-52.12436992 88.47934111 -52.54102607 86.0265198 -53.12133789 83.38793945 C-55.83031212 69.97949146 -54.05899385 56.76135641 -51.12133789 43.57543945 C-50.86340824 42.26502705 -50.60947271 40.9538219 -50.35961914 39.6418457 C-47.81369348 26.69668931 -47.81369348 26.69668931 -43.05883789 22.95043945 C-40.5056371 21.75532419 -38.32806089 21.08545802 -35.62133789 20.38793945 C-24.10297592 17.10186888 -13.02417194 8.58758524 -4.06274414 0.7824707 C-2.12133789 -0.42456055 -2.12133789 -0.42456055 0 0 Z " fill="#705543" transform="translate(99.121337890625,150.424560546875)"/>
<path d="M0 0 C0 3.85900997 -0.52280192 5.01279055 -3 8 C-5.46513669 9.19253621 -7.93604655 10.12450456 -10.52734375 11.0078125 C-13.05502706 11.89202694 -13.05502706 11.89202694 -15.08203125 13.60546875 C-17.95986198 15.69790372 -20.55198135 15.19892415 -24 15 C-23.48179688 14.74863281 -22.96359375 14.49726563 -22.4296875 14.23828125 C-19.28256887 12.63436388 -16.20143565 10.92166914 -13.125 9.1875 C-12.52558594 8.85685547 -11.92617187 8.52621094 -11.30859375 8.18554688 C-7.13781761 5.82874171 -3.60429208 3.15788893 0 0 Z " fill="#635245" transform="translate(87,157)"/>
<path d="M0 0 C-1.65 1.98 -3.3 3.96 -5 6 C-6.65 5.34 -8.3 4.68 -10 4 C-10 3.34 -10 2.68 -10 2 C-10.825 2.165 -11.65 2.33 -12.5 2.5 C-16.41272317 3.05896045 -20.05183173 3.06807187 -24 3 C-16.89293126 -0.99164135 -7.9303435 -0.15185764 0 0 Z " fill="#5A4837" transform="translate(283,296)"/>
<path d="M0 0 C0.66 0.33 1.32 0.66 2 1 C1.77183594 1.60328125 1.54367188 2.2065625 1.30859375 2.828125 C1.02113281 3.62734375 0.73367187 4.4265625 0.4375 5.25 C0.14746094 6.03890625 -0.14257812 6.8278125 -0.44140625 7.640625 C-1.05415343 10.22873195 -0.68231252 11.48760893 0 14 C-0.95495674 15.69287785 -1.9590934 17.35857037 -3 19 C-3.39171753 20.65391846 -3.72057545 22.32345271 -4 24 C-4.65146849 26.33762223 -5.31526605 28.67190457 -6 31 C-7.22312773 27.3306168 -6.63082609 25.71965547 -5.6875 22 C-4.40905689 16.79906097 -3.36246634 11.62895347 -2.52734375 6.33984375 C-1.99288368 3.96842461 -1.17818415 2.11682049 0 0 Z " fill="#655246" transform="translate(53,176)"/>
<path d="M0 0 C0.66 0 1.32 0 2 0 C2.84069415 1.60032137 3.67231505 3.20541171 4.5 4.8125 C4.9640625 5.70582031 5.428125 6.59914063 5.90625 7.51953125 C7 10 7 10 7 13 C6.01 12.67 5.02 12.34 4 12 C4 10.68 4 9.36 4 8 C3.34 8 2.68 8 2 8 C1.34 5.36 0.68 2.72 0 0 Z " fill="#655041" transform="translate(215,466)"/>
<path d="M0 0 C3.54968734 1.18322911 3.79310426 1.91752387 5.5625 5.0625 C6.74543783 7.23757509 6.74543783 7.23757509 8 9 C8.66 9 9.32 9 10 9 C10.33 9.99 10.66 10.98 11 12 C10.34 12.66 9.68 13.32 9 14 C5.25876024 9.7045025 2.65848126 5.00099548 0 0 Z " fill="#5F4D3E" transform="translate(139,387)"/>
<path d="M0 0 C1.65 0 3.3 0 5 0 C7.14285714 7.42857143 7.14285714 7.42857143 8 11 C7.34 11 6.68 11 6 11 C3.64658993 7.52104598 1.84090726 3.76947676 0 0 Z " fill="#5A493D" transform="translate(79,396)"/>
<path d="M0 0 C1.78409802 3.06246747 2.22880021 5.22079273 2.125 8.75 C2.10695313 9.54921875 2.08890625 10.3484375 2.0703125 11.171875 C2.03550781 12.07679688 2.03550781 12.07679688 2 13 C1.01 12.67 0.02 12.34 -1 12 C-1.33 8.7 -1.66 5.4 -2 2 C-1.34 2 -0.68 2 0 2 C0 1.34 0 0.68 0 0 Z " fill="#6C594D" transform="translate(93,243)"/>
<path d="M0 0 C0.66 0.66 1.32 1.32 2 2 C0.00383446 3.99616554 -3.81701963 3.40983427 -6.5625 3.5625 C-7.27341797 3.60568359 -7.98433594 3.64886719 -8.71679688 3.69335938 C-10.47761912 3.79971777 -12.2387832 3.90038846 -14 4 C-14 3.67 -14 3.34 -14 3 C-11.71168328 2.44435129 -9.41919635 1.90585026 -7.125 1.375 C-5.84882813 1.07335937 -4.57265625 0.77171875 -3.2578125 0.4609375 C-2.18273437 0.30882812 -1.10765625 0.15671875 0 0 Z " fill="#4C3E37" transform="translate(312,294)"/>
<path d="M0 0 C2.0625 1.6875 2.0625 1.6875 4 4 C3.75 6.75 3.75 6.75 3 9 C3.66 9.33 4.32 9.66 5 10 C4.01 10.33 3.02 10.66 2 11 C1.34 7.37 0.68 3.74 0 0 Z " fill="#6A584B" transform="translate(55,334)"/>
<path d="M0 0 C4.30840713 1.07710178 7.63576723 2.03947516 11 5 C10.67 5.66 10.34 6.32 10 7 C8.70359622 6.40606618 7.41301161 5.79942011 6.125 5.1875 C5.40570313 4.85105469 4.68640625 4.51460938 3.9453125 4.16796875 C2 3 2 3 0 0 Z " fill="#544236" transform="translate(199,445)"/>
<path d="M0 0 C0.33 0 0.66 0 1 0 C1.25 6.625 1.25 6.625 -1 10 C-2.38125018 7.23749964 -2.19079306 5.05268901 -2 2 C-1.34 1.34 -0.68 0.68 0 0 Z " fill="#655246" transform="translate(333,403)"/>
<path d="M0 0 C0.99 0 1.98 0 3 0 C3 0.66 3 1.32 3 2 C2.34 2 1.68 2 1 2 C0.71125 2.804375 0.4225 3.60875 0.125 4.4375 C-1 7 -1 7 -3 8 C-1.125 1.125 -1.125 1.125 0 0 Z " fill="#645146" transform="translate(364,95)"/>
<path d="M0 0 C1.32 0 2.64 0 4 0 C2.75023244 3.65316671 2.32901247 4.78065836 -1 7 C-0.67 4.69 -0.34 2.38 0 0 Z " fill="#68574A" transform="translate(362,369)"/>
<path d="M0 0 C1.32 1.65 2.64 3.3 4 5 C2.68 5.99 1.36 6.98 0 8 C-0.66 7.67 -1.32 7.34 -2 7 C-2 6.01 -2 5.02 -2 4 C-1.34 3.67 -0.68 3.34 0 3 C0 2.01 0 1.02 0 0 Z " fill="#5E5046" transform="translate(314,290)"/>
<path d="M0 0 C3.05882701 1.52941351 3.68951234 3.94219546 5 7 C4.67 7.66 4.34 8.32 4 9 C1.47740939 7.02579865 1.0070192 6.03254358 0.3125 2.8125 C0.209375 1.884375 0.10625 0.95625 0 0 Z M4 4 C6 5 6 5 6 5 Z " fill="#624D3E" transform="translate(232,472)"/>
</svg>
